<svg width="1222" height="494" viewBox="0 0 1222 494" fill="none" xmlns="http://www.w3.org/2000/svg">
<path opacity="0.1" d="M633.182 611C633.182 623.251 623.251 633.182 611 633.182C598.749 633.182 588.818 623.251 588.818 611C588.818 598.749 598.749 588.818 611 588.818C623.251 588.818 633.182 598.749 633.182 611ZM611 634.182C623.803 634.182 634.182 623.803 634.182 611C634.182 598.197 623.803 587.818 611 587.818C598.197 587.818 587.818 598.197 587.818 611C587.818 623.803 598.197 634.182 611 634.182ZM824.563 611C824.563 728.947 728.947 824.563 611 824.563C493.053 824.563 397.437 728.947 397.437 611C397.437 493.053 493.053 397.437 611 397.437C728.947 397.437 824.563 493.053 824.563 611ZM611 825.563C729.5 825.563 825.563 729.5 825.563 611C825.563 492.5 729.5 396.437 611 396.437C492.5 396.437 396.437 492.5 396.437 611C396.437 729.5 492.5 825.563 611 825.563ZM882.686 611C882.686 761.048 761.048 882.686 611 882.686C460.952 882.686 339.314 761.048 339.314 611C339.314 460.952 460.952 339.314 611 339.314C761.048 339.314 882.686 460.952 882.686 611ZM611 883.686C761.6 883.686 883.686 761.6 883.686 611C883.686 460.4 761.6 338.314 611 338.314C460.4 338.314 338.314 460.4 338.314 611C338.314 761.6 460.4 883.686 611 883.686ZM937.973 611C937.973 791.582 791.582 937.973 611 937.973C430.418 937.973 284.027 791.582 284.027 611C284.027 430.418 430.418 284.027 611 284.027C791.582 284.027 937.973 430.418 937.973 611ZM611 938.973C792.135 938.973 938.973 792.135 938.973 611C938.973 429.865 792.135 283.027 611 283.027C429.865 283.027 283.027 429.865 283.027 611C283.027 792.135 429.865 938.973 611 938.973ZM990.426 611C990.426 820.551 820.551 990.426 611 990.426C401.449 990.426 231.574 820.551 231.574 611C231.574 401.449 401.449 231.574 611 231.574C820.551 231.574 990.426 401.449 990.426 611ZM611 991.426C821.103 991.426 991.426 821.103 991.426 611C991.426 400.897 821.103 230.574 611 230.574C400.897 230.574 230.574 400.897 230.574 611C230.574 821.103 400.897 991.426 611 991.426ZM1045.71 611C1045.71 851.086 851.086 1045.71 611 1045.71C370.914 1045.71 176.287 851.086 176.287 611C176.287 370.914 370.914 176.287 611 176.287C851.086 176.287 1045.71 370.914 1045.71 611ZM611 1046.71C851.638 1046.71 1046.71 851.638 1046.71 611C1046.71 370.362 851.638 175.287 611 175.287C370.362 175.287 175.287 370.362 175.287 611C175.287 851.638 370.362 1046.71 611 1046.71ZM1101 611C1101 881.62 881.62 1101 611 1101C340.38 1101 120.999 881.62 120.999 611C120.999 340.38 340.38 120.999 611 120.999C881.62 120.999 1101 340.38 1101 611ZM611 1102C882.172 1102 1102 882.172 1102 611C1102 339.828 882.172 119.999 611 119.999C339.828 119.999 119.999 339.828 119.999 611C119.999 882.172 339.828 1102 611 1102ZM1157.71 611C1157.71 912.938 912.938 1157.71 611 1157.71C309.062 1157.71 64.2935 912.938 64.2935 611C64.2935 309.062 309.062 64.2935 611 64.2935C912.938 64.2935 1157.71 309.062 1157.71 611ZM611 1158.71C913.49 1158.71 1158.71 913.49 1158.71 611C1158.71 308.51 913.49 63.2935 611 63.2935C308.51 63.2935 63.2935 308.51 63.2935 611C63.2935 913.49 308.51 1158.71 611 1158.71ZM1221.5 611C1221.5 948.17 948.17 1221.5 611 1221.5C273.83 1221.5 0.5 948.17 0.5 611C0.5 273.83 273.83 0.5 611 0.5C948.17 0.5 1221.5 273.83 1221.5 611Z" stroke="url(#paint0_radial_4043_1872)"/>
<defs>
<radialGradient id="paint0_radial_4043_1872" cx="0" cy="0" r="1" gradientUnits="userSpaceOnUse" gradientTransform="translate(588.5 473.5) rotate(127.03) scale(502.302 1123.45)">
<stop offset="0.0281295" stop-color="#1BAFB1"/>
<stop offset="0.810312" stop-color="#18243E" stop-opacity="0"/>
</radialGradient>
</defs>
</svg>
