<svg width="113" height="43" viewBox="0 0 113 43" fill="none" xmlns="http://www.w3.org/2000/svg">
<g clip-path="url(#clip0_4043_1843)">
<path d="M77.3242 29.4664H71.6996V21.3991C71.6996 20.78 71.6343 20.3493 71.5037 20.1094C71.3731 19.8695 71.137 19.7496 70.7967 19.7496C70.1654 19.7496 69.8492 20.3047 69.8492 21.414V29.4653H64.2246V21.398C64.2246 20.7788 64.157 20.3482 64.0218 20.1083C63.8866 19.8684 63.6482 19.7484 63.3079 19.7484C62.6858 19.7484 62.3753 20.3036 62.3753 21.4128V29.4641H56.7506V20.2579C56.7506 18.5786 57.3167 17.1518 58.4498 15.9775C59.583 14.8032 60.9557 14.216 62.5701 14.216C64.1845 14.216 65.7278 14.9163 67.0512 16.3156C68.5247 14.9163 69.9993 14.216 71.4727 14.216C73.3472 14.216 74.8516 14.8957 75.9848 16.2551C76.8774 17.3152 77.3231 18.8597 77.3231 20.8885V29.4653L77.3242 29.4664Z" fill="#18243E"/>
<path d="M79.9904 35V22.5255C79.9904 20.2362 80.592 18.3719 81.795 16.9325C82.4871 16.1032 83.3671 15.4429 84.4349 14.9528C85.5028 14.4627 86.5981 14.2183 87.721 14.2183C89.9564 14.2183 91.8412 14.9677 93.3754 16.4676C94.9096 17.9675 95.6761 19.8067 95.6761 21.9851C95.6761 24.1636 94.9142 25.9343 93.3903 27.473C91.8664 29.0129 90.0618 29.7817 87.9765 29.7817C87.6351 29.7817 87.1344 29.7463 86.4733 29.6766V23.4988C86.9339 23.8689 87.3956 24.054 87.8562 24.054C88.4383 24.054 88.9367 23.8392 89.3526 23.4097C89.7685 22.9801 89.977 22.4706 89.977 21.8801C89.977 21.2895 89.7616 20.788 89.3297 20.3733C88.8989 19.9586 88.3821 19.7507 87.7806 19.7507C86.3369 19.7507 85.6151 20.7457 85.6151 22.7345V29.4664C85.5062 30.0216 84.9127 32.7336 82.4355 34.1855C81.5235 34.7201 80.6344 34.9212 79.9904 34.9989V35Z" fill="#18243E"/>
<path d="M105.256 14.2034C107.381 14.2034 109.203 14.9654 110.722 16.4904C112.242 18.0143 113.001 19.8421 113.001 21.9703C113.001 24.0985 112.231 25.9685 110.693 27.4879C109.154 29.0072 107.297 29.7669 105.121 29.7669C102.945 29.7669 101.085 29.0049 99.5408 27.4799C97.9963 25.956 97.2252 24.1191 97.2252 21.9692C97.2252 19.8192 97.9975 17.9389 99.5408 16.4436C101.084 14.9494 102.99 14.2023 105.256 14.2023V14.2034ZM105.105 19.7359C104.503 19.7359 103.992 19.9529 103.571 20.3881C103.149 20.8234 102.939 21.3557 102.939 21.9851C102.939 22.6146 103.152 23.1344 103.579 23.5742C104.005 24.014 104.514 24.2344 105.105 24.2344C105.696 24.2344 106.22 24.0151 106.646 23.5742C107.072 23.1344 107.285 22.6043 107.285 21.9851C107.285 21.366 107.074 20.8234 106.654 20.3881C106.232 19.9529 105.717 19.7359 105.105 19.7359Z" fill="#18243E"/>
<path d="M34.4034 23.0715C34.0654 22.2856 34.1445 20.2682 34.1445 19.079H35.4323C36.1163 19.079 36.6709 18.5261 36.6709 17.8441V15.9638C36.6709 15.2818 36.1163 14.7289 35.4323 14.7289H34.1445V10.2349C34.1445 9.5529 33.5899 9 32.9059 9H32.4922C32.1462 9 31.8174 9.14394 31.5825 9.3964L28.8487 12.3448C28.6367 12.5733 28.5198 12.8726 28.5198 13.1833V21.2803C28.5198 23.4097 28.9507 25.1186 29.8134 26.4083C30.4952 27.4182 31.4003 28.2178 32.5278 28.8073C33.6552 29.3967 34.856 29.6915 36.1301 29.6915H36.7763V23.7969C36.1908 23.7764 34.6486 23.6393 34.4034 23.0704V23.0715Z" fill="#18243E"/>
<path d="M24.3229 23.316C23.9849 22.5301 24.0639 20.5127 24.0639 19.3235V10.4793C24.0639 9.79736 23.5094 9.24446 22.8253 9.24446H22.4117C22.0657 9.24446 21.7368 9.3884 21.502 9.64086L18.7681 12.5893C18.5562 12.8178 18.4393 13.117 18.4393 13.4278V21.5248C18.4393 23.6541 18.8701 25.3631 19.7329 26.6528C20.4146 27.6627 21.3198 28.4623 22.4472 29.0518C23.5747 29.6412 24.7754 29.9359 26.0495 29.9359H26.6958V24.0414C26.1103 24.0208 24.5681 23.8837 24.3229 23.3148V23.316Z" fill="#18243E"/>
<path d="M54.6344 21.8504C54.5931 11.5703 39.0083 11.8685 39.0094 22.0011C38.9613 31.188 52.391 32.7073 54.5152 23.6336H49.7328C49.3375 23.6336 48.9559 23.8072 48.7188 24.1225C47.5329 25.7012 45.1141 24.9678 44.8426 22.9013H54.5737C54.6138 22.4215 54.6344 22.072 54.6344 21.8515V21.8504ZM44.9709 20.2453C45.5071 18.2234 48.6855 17.867 48.9788 20.2453H44.9709Z" fill="#18243E"/>
<path d="M14.3844 14.4262H12.495C11.8854 14.4262 11.363 14.7929 11.1338 15.3161C11.0548 15.4966 11.0101 15.6965 11.0101 15.9067V21.2712C11.0101 22.1268 10.7225 22.9664 10.1588 23.6119C9.66263 24.1808 8.95913 24.6194 8.01386 24.7451C6.11874 24.9964 4.62809 24.0802 4.40695 22.4238C4.18582 20.7663 5.31899 19.3326 7.21411 19.0813C8.19948 18.9511 9.3865 19.2561 10.0957 19.8135V15.0808C10.0957 14.9699 10.0236 14.8694 9.91585 14.8386C9.1688 14.6204 8.14792 14.4022 7.31837 14.4319C3.34825 14.5735 0.105705 17.7733 0.00258506 21.7338C-0.10741 25.9674 3.30701 29.5784 7.53034 29.4413C9.30973 29.383 10.4372 28.7593 11.2633 28.0533C11.5314 28.3412 11.9874 28.7547 12.6554 29.0632C13.5228 29.463 14.554 29.4927 15.0455 29.463C15.1796 29.455 15.623 29.3453 15.623 29.2105V15.6611C15.623 14.9791 15.0684 14.4262 14.3844 14.4262Z" fill="#18243E"/>
<path d="M7.75262 19.9438C7.53607 19.986 6.82913 20.154 6.26999 20.8062C5.75668 21.4048 5.67075 22.0571 5.65241 22.2844C5.33733 21.7315 5.33274 21.0633 5.65241 20.5595C6.06375 19.9106 6.94943 19.6296 7.75377 19.9438H7.75262Z" fill="#18243E"/>
</g>
<defs>
<clipPath id="clip0_4043_1843">
<rect width="113" height="26" fill="white" transform="translate(0 9)"/>
</clipPath>
</defs>
</svg>
